<?xml version="1.0" encoding="utf-8"?>
<!-- Generator: Adobe Illustrator 28.0.0, SVG Export Plug-In . SVG Version: 6.00 Build 0)  -->
<svg version="1.1" id="Layer_1" xmlns="http://www.w3.org/2000/svg" xmlns:xlink="http://www.w3.org/1999/xlink" x="0px" y="0px"
	 viewBox="0 0 512 512" style="enable-background:new 0 0 512 512;" xml:space="preserve">
<style type="text/css">
	.st0{fill:#383838;}
</style>
<path class="st0" d="M458.7,301.2L384.4,256l74.3-45.2c32.2-19.3,42.6-60.9,23.3-93.1c-19.3-32.2-60.9-42.6-93.1-23.3
	c-0.7,0.4-1.3,0.8-2,1.2L320,138.5V64c0-35.3-28.7-64-64-64s-64,28.7-64,64v76.5l-66.9-44.9C92.9,76.3,51.2,86.8,32,118.9
	c-18.8,31.4-9.3,72,21.4,91.9l74.3,45.2l-74.3,45.2c-31.5,20.4-40.5,62.4-20.1,93.8c19.9,30.7,60.5,40.2,91.9,21.4l66.9-43.5V448
	c0,35.3,28.7,64,64,64s64-28.7,64-64v-76.4l66.9,44.8c32.2,19.3,73.8,8.8,93.1-23.3C498.8,361.7,489.4,321.1,458.7,301.2
	L458.7,301.2z"/>
</svg>
