<?xml version="1.0" encoding="utf-8"?>
<!-- Generator: Adobe Illustrator 28.0.0, SVG Export Plug-In . SVG Version: 6.00 Build 0)  -->
<svg version="1.1" id="Layer_1" xmlns="http://www.w3.org/2000/svg" xmlns:xlink="http://www.w3.org/1999/xlink" x="0px" y="0px"
	 viewBox="0 0 512 512" style="enable-background:new 0 0 512 512;" xml:space="preserve">
<style type="text/css">
	.st0{fill:#FFFFFF;}
	.st1{fill:#141414;}
</style>
<g>
	<path class="st0" d="M256.1,497.5c-27.3,0-49.5-22.2-49.5-49.5v-75.1c0-5.3-2.9-10.2-7.6-12.7c-2.2-1.2-4.5-1.8-6.9-1.8
		c-2.8,0-5.5,0.8-7.9,2.3l-66.7,43.3c-8.2,4.9-17.6,7.5-27.1,7.5c-18.2,0-35-9.1-44.9-24.4c-7.7-11.9-10.4-26.1-7.4-40
		c3-13.9,11.2-25.8,23.1-33.6l74.1-45.1c4.3-2.6,7-7.3,7-12.4s-2.6-9.8-7-12.4l-74.1-45.1c-24.2-15.8-31.5-47.4-16.7-72.2
		c9.6-16,27.1-25.9,45.8-25.9c9.5,0,18.9,2.6,27.1,7.4l66.6,44.7c2.4,1.6,5.3,2.5,8.1,2.5c2.3,0,4.7-0.6,6.8-1.7
		c4.7-2.5,7.7-7.4,7.7-12.8V64c0-27.3,22.2-49.5,49.5-49.5c27.3,0,49.5,22.2,49.5,49.5v74.5c0,5.3,2.9,10.2,7.5,12.7
		c2.2,1.2,4.6,1.8,7,1.8c2.7,0,5.4-0.8,7.8-2.3l66.6-42.7c0.4-0.2,0.7-0.4,1-0.6c0.2-0.1,0.4-0.2,0.6-0.4c0.1-0.1,0.2-0.1,0.3-0.2
		c8.3-5,17.8-7.6,27.4-7.6c18.9,0,36,9.7,45.8,26c7.3,12.3,9.5,26.6,6,40.4c-3.5,13.8-12.1,25.5-24.3,32.8l-74.4,45.2
		c-4.3,2.6-7,7.3-7,12.4s2.6,9.8,7,12.4l74.1,45.1c24.1,15.7,31.4,47.4,16.7,72.2c-9.7,16.2-26.9,25.9-45.8,25.9c0,0,0,0,0,0
		c-9.5,0-18.8-2.6-27.1-7.4l-66.6-44.6c-2.4-1.6-5.2-2.5-8.1-2.5c-2.3,0-4.7,0.6-6.8,1.7c-4.7,2.5-7.7,7.4-7.7,12.8V448
		C305.6,475.3,283.4,497.5,256.1,497.5z"/>
	<path class="st1" d="M256,29c19.3,0,35,15.7,35,35v74.5c0,10.6,5.8,20.4,15.1,25.4c4.3,2.4,9.1,3.6,13.9,3.6
		c5.5,0,10.9-1.5,15.7-4.6l66.4-42.6c0.4-0.2,0.8-0.5,1-0.6l0.3-0.2c0.1-0.1,0.3-0.2,0.4-0.3c6.1-3.6,13-5.6,20-5.6
		c13.8,0,26.2,7.1,33.3,18.9c5.4,8.9,6.9,19.4,4.4,29.4c-2.5,10-8.8,18.5-17.7,23.9c-0.1,0-0.1,0.1-0.2,0.1l-74.3,45.2
		c-8.6,5.3-13.9,14.7-13.9,24.8s5.3,19.5,13.9,24.8l73.9,45c17.4,11.5,22.7,34.5,12,52.5c-7.1,11.8-19.6,18.9-33.4,18.9
		c-6.8,0-13.5-1.8-19.4-5.2l-66.2-44.3c-4.9-3.3-10.5-4.9-16.1-4.9c-4.7,0-9.4,1.1-13.7,3.4c-9.4,5-15.3,14.9-15.3,25.6V448
		c0,19.3-15.7,35-35,35s-35-15.7-35-35v-75.1c0-10.6-5.8-20.4-15.2-25.5c-4.3-2.3-9.1-3.5-13.8-3.5c-5.5,0-11,1.6-15.8,4.7
		l-66.4,43.2c-5.9,3.5-12.7,5.3-19.5,5.3c-13.3,0-25.5-6.7-32.8-17.8c-5.6-8.7-7.5-19-5.4-29.1c2.1-10.1,8-18.7,16.6-24.4l73.9-45
		c8.6-5.3,13.9-14.7,13.9-24.8s-5.3-19.5-13.9-24.8l-73.9-45c-17.5-11.5-22.7-34.5-12-52.5c7.1-11.8,19.5-18.9,33.4-18.9
		c6.8,0,13.5,1.8,19.4,5.2l66.2,44.4c4.9,3.3,10.5,4.9,16.2,4.9c4.7,0,9.4-1.1,13.6-3.4c9.5-5,15.4-14.9,15.4-25.6V64
		C221,44.7,236.7,29,256,29 M403.4,119.5L403.4,119.5L403.4,119.5 M256,0c-35.3,0-64,28.7-64,64v76.5l-66.9-44.9
		c-10.9-6.6-23-9.7-34.8-9.7c-23.1,0-45.6,11.8-58.3,33c-18.8,31.4-9.3,72,21.4,91.9l74.3,45.2l-74.3,45.2
		c-31.5,20.4-40.5,62.4-20.1,93.8c13,20,34.8,31,57.1,31c11.9,0,23.9-3.1,34.8-9.6l66.9-43.5V448c0,35.3,28.7,64,64,64
		s64-28.7,64-64v-76.4l66.9,44.8c10.9,6.6,23,9.7,34.8,9.7c23.1,0,45.5-11.8,58.3-33c18.7-31.4,9.3-72-21.4-91.9L384.4,256
		l74.3-45.2c32.2-19.3,42.6-60.9,23.3-93.1c-12.7-21.2-35.2-33-58.2-33c-11.9,0-23.9,3.1-34.9,9.7c-0.7,0.4-1.3,0.8-2,1.2L320,138.5
		V64C320,28.7,291.3,0,256,0L256,0z"/>
</g>
</svg>
