<svg id="Capa_1" enable-background="new 0 0 512 512" height="512" viewBox="0 0 512 512" width="512" xmlns="http://www.w3.org/2000/svg"><g><path d="m25.69 318.858c0-115.478 32.681-195.614 74.951-301.769 5.978-15.012 23.772-21.577 37.932-13.794 62.516 34.361 87.392 139.087 90.581 176.927z" fill="#d9495d"/><path d="m486.31 318.858c0-105.399-38.574-191.008-56.27-254.326-5.165-18.481-25.63-28.225-43.053-20.184-62.606 28.893-101.059 99.3-104.142 135.875z" fill="#d9495d"/><path d="m25.69 318.858c0-144.578 117.386-200.124 198.98-302.727 16.039-20.169 46.622-20.169 62.661 0 81.594 102.603 198.98 158.149 198.98 302.727-.001 106.669-103.114 193.142-230.311 193.142s-230.31-86.473-230.31-193.142z" fill="#e26e7e"/><path d="m106.053 383.743c0-101.691 94.109-123.225 117.759-198.831 5.225-16.702 25.529-23.047 39.642-12.699 86.183 63.188 142.492 140.064 142.492 211.531.001 70.834-67.133 128.256-149.946 128.256s-149.947-57.422-149.947-128.257z" fill="#f1e75b"/><path d="m191.19 238.419c-36.168 40.32-85.136 71.967-85.136 145.324-.001 70.835 67.133 128.257 149.946 128.257 42.638 0 81.119-15.224 108.421-39.662-191.721 24.411-200.508-165.655-173.231-233.919z" fill="#ebca5f"/><g><g fill="#eda1ab"><ellipse cx="169.913" cy="395.488" rx="31.765" ry="25.296"/><ellipse cx="342.087" cy="395.488" rx="31.765" ry="25.296"/></g><g fill="#424952"><path d="m188.425 378.327c-4.142 0-7.5-3.358-7.5-7.5v-12.362c0-4.142 3.358-7.5 7.5-7.5s7.5 3.358 7.5 7.5v12.362c0 4.142-3.358 7.5-7.5 7.5z"/><path d="m256 386.368c-8.996 0-17.55-3.896-23.47-10.688-2.721-3.123-2.396-7.86.726-10.582 3.123-2.721 7.859-2.397 10.582.727 3.07 3.523 7.503 5.544 12.162 5.544s9.091-2.02 12.162-5.544c2.722-3.122 7.458-3.447 10.582-.727 3.122 2.722 3.448 7.459.727 10.582-5.921 6.792-14.475 10.688-23.471 10.688z"/><path d="m340.288 377.982c-4.142 0-7.5-3.358-7.5-7.5 0-3.764-3.062-6.826-6.826-6.826s-6.826 3.062-6.826 6.826c0 4.142-3.358 7.5-7.5 7.5s-7.5-3.358-7.5-7.5c0-12.035 9.791-21.826 21.826-21.826s21.826 9.791 21.826 21.826c0 4.142-3.358 7.5-7.5 7.5z"/></g></g></g></svg>