<svg id="Layer_1" height="512" viewBox="0 0 512 512" width="512" xmlns="http://www.w3.org/2000/svg" data-name="Layer 1"><circle cx="256" cy="256" fill="#ff9100" r="256"/><path d="m354.58 229.539a65.51 65.51 0 0 0 -14.328 1.584 104.322 104.322 0 0 0 -192.464-25.84 79.3 79.3 0 0 0 23.544 155.024h183.248a65.384 65.384 0 0 0 0-130.768zm0 114.768h-183.248a63.3 63.3 0 1 1 60.559-81.773 8 8 0 1 0 15.3-4.662 79.923 79.923 0 0 0 -28.236-40.266 78.623 78.623 0 0 0 -47.627-15.891c-.7 0-1.395.035-2.093.053a88.32 88.32 0 0 1 158.023 54.232c0 1.281-.028 2.58-.082 3.861a8 8 0 0 0 7.65 8.334c.116.006.233.008.348.008a8 8 0 0 0 7.986-7.658c.065-1.508.1-3.037.1-4.545 0-3.051-.14-6.069-.4-9.054a49.386 49.386 0 1 1 11.72 97.361z" fill="#fff"/></svg>