<svg height="512" viewBox="0 0 58 58" width="512" xmlns="http://www.w3.org/2000/svg"><g id="020---Travel-Location" fill="none"><path id="Shape" d="m37.49 44.3c11.87.88 20.51 3.54 20.51 6.7 0 3.87-12.98 7-29 7s-29-3.13-29-7c0-3.16 8.64-5.82 20.51-6.7z" fill="#95a5a5"/><path id="Shape" d="m49 20.137c0 13.428-15.809 29.243-19.316 32.587-.3818453.3677747-.9861547.3677747-1.368 0-3.507-3.344-19.316-19.159-19.316-32.587 0-11.045695 8.954305-20 20-20s20 8.954305 20 20z" fill="#e64c3c"/><circle id="Oval" cx="29" cy="20" fill="#802f34" r="16"/><path id="Shape" d="m37.42 14.385-2.987 2.987c-.2808389.2794106-.3702573.6982654-.228 1.068l2.682 7.025c.1491669.3908646.04086.8332509-.272 1.111l-.909.81c-.3951794.3511877-.995439.3341-1.37-.039l-4.255-4.247c-.3857799-.3800711-1.0052201-.3800711-1.391 0l-2.69 2.685c-.2638768.2690924-.3563592.6625279-.24 1.021l.32.93c.1151101.3553745.0225513.7452781-.24 1.011l-.971.96c-.182772.1876045-.433582.2934155-.6955.2934155s-.512728-.105811-.6955-.2934155l-4.183-4.192c-.1876045-.182772-.2934155-.433582-.2934155-.6955s.105811-.512728.2934155-.6955l.96-.961c.2632371-.2669986.6558464-.3601996 1.011-.24l.931.32c.3586002.1097886.7485355.0168011 1.019-.243l2.684-2.688c.3800711-.3857799.3800711-1.0052201 0-1.391l-4.243-4.253c-.3740146-.3744185-.391549-.9754126-.04-1.371l.809-.909c.2782277-.3127729.7208131-.4210312 1.112-.272l7.022 2.684c.3715424.1417875.7917135.0521144 1.073-.229l2.979-2.986c.7807665-.7288692 1.9984288-.7088141 2.7547692.0453715.7563404.7541855.7798694 1.9717857.0532308 2.7546285z" fill="#fff"/><path id="Shape" d="m29 37c-9.3888407 0-17-7.6111593-17-17s7.6111593-17 17-17 17 7.6111593 17 17c-.010471 9.3845001-7.6154999 16.989529-17 17zm0-32c-8.2842712 0-15 6.7157288-15 15s6.7157288 15 15 15 15-6.7157288 15-15c-.0093685-8.2803876-6.7196124-14.99063148-15-15z" fill="#fb7b76"/></g></svg>