<svg id="svg2716" height="512" viewBox="0 0 6.3499999 6.3500002" width="512" xmlns="http://www.w3.org/2000/svg" xmlns:svg="http://www.w3.org/2000/svg"><g id="layer1" transform="translate(0 -290.65)"><path id="path10019" d="m3.1660277 290.72494c-1.7147065 0-3.11132818 1.39467-3.11132818 3.10937 0 1.71471 1.39662168 3.11133 3.11132818 3.11133 1.7147064 0 3.1093749-1.39662 3.1093749-3.11133 0-1.7147-1.3946685-3.10937-3.1093749-3.10937z" fill="#42a5f5" font-variant-ligatures="normal" font-variant-position="normal" font-variant-caps="normal" font-variant-numeric="normal" font-variant-alternates="normal" font-feature-settings="normal" text-indent="0" text-align="start" text-decoration-line="none" text-decoration-style="solid" text-decoration-color="#000000" text-transform="none" text-orientation="mixed" white-space="normal" shape-padding="0" isolation="auto" mix-blend-mode="normal" solid-color="#000000" solid-opacity="1" vector-effect="none" paint-order="stroke fill markers"/><path id="path10497" d="m3.1660277 290.72418c-1.7147065 0-3.11132818 1.39663-3.11132818 3.11133 0 1.71471 1.39662168 3.10938 3.11132818 3.10938z" fill="#64b5f6" font-variant-ligatures="normal" font-variant-position="normal" font-variant-caps="normal" font-variant-numeric="normal" font-variant-alternates="normal" font-feature-settings="normal" text-indent="0" text-align="start" text-decoration-line="none" text-decoration-style="solid" text-decoration-color="#000000" text-transform="none" text-orientation="mixed" white-space="normal" shape-padding="0" isolation="auto" mix-blend-mode="normal" solid-color="#000000" solid-opacity="1" vector-effect="none" paint-order="stroke fill markers"/><g fill="#ffca28"><path id="path8295" d="m3.9414183 293.56088a.26500095.26500095 0 0 0 .027344.52929h1.8515626a.26464803.26464803 0 1 0 0-.52929h-1.8515627a.26460982.26460982 0 0 0 -.027344 0z" font-variant-ligatures="normal" font-variant-position="normal" font-variant-caps="normal" font-variant-numeric="normal" font-variant-alternates="normal" font-feature-settings="normal" text-indent="0" text-align="start" text-decoration-line="none" text-decoration-style="solid" text-decoration-color="#000000" text-transform="none" text-orientation="mixed" white-space="normal" shape-padding="0" isolation="auto" mix-blend-mode="normal" solid-color="#000000" solid-opacity="1" vector-effect="none"/><path id="path8297" d="m4.7578245 292.764a.26460982.26460982 0 0 0 -.1816407.0801l-.7949218.79297a.26460982.26460982 0 0 0 0 .375l.7949218.79297a.26460982.26460982 0 1 0 .3730469-.37305l-.6054688-.60742.6054688-.60547a.26460982.26460982 0 0 0 -.1914062-.45508z" font-variant-ligatures="normal" font-variant-position="normal" font-variant-caps="normal" font-variant-numeric="normal" font-variant-alternates="normal" font-feature-settings="normal" text-indent="0" text-align="start" text-decoration-line="none" text-decoration-style="solid" text-decoration-color="#000000" text-transform="none" text-orientation="mixed" white-space="normal" shape-padding="0" isolation="auto" mix-blend-mode="normal" solid-color="#000000" solid-opacity="1" vector-effect="none"/><path id="path8299" d="m.50196522 293.56088a.26500094.26500094 0 0 0 .027344.52929h1.84179678a.26464803.26464803 0 1 0 0-.52929h-1.84179708a.26460982.26460982 0 0 0 -.0273437 0z" font-variant-ligatures="normal" font-variant-position="normal" font-variant-caps="normal" font-variant-numeric="normal" font-variant-alternates="normal" font-feature-settings="normal" text-indent="0" text-align="start" text-decoration-line="none" text-decoration-style="solid" text-decoration-color="#000000" text-transform="none" text-orientation="mixed" white-space="normal" shape-padding="0" isolation="auto" mix-blend-mode="normal" solid-color="#000000" solid-opacity="1" vector-effect="none"/><path id="path8301" d="m1.5761839 292.764a.26460982.26460982 0 0 0 -.1855469.45508l.6074219.60547-.6074219.60742a.26460982.26460982 0 1 0 .375.37305l.7929688-.79297a.26460982.26460982 0 0 0 0-.375l-.7929688-.79297a.26460982.26460982 0 0 0 -.1894531-.0801z" font-variant-ligatures="normal" font-variant-position="normal" font-variant-caps="normal" font-variant-numeric="normal" font-variant-alternates="normal" font-feature-settings="normal" text-indent="0" text-align="start" text-decoration-line="none" text-decoration-style="solid" text-decoration-color="#000000" text-transform="none" text-orientation="mixed" white-space="normal" shape-padding="0" isolation="auto" mix-blend-mode="normal" solid-color="#000000" solid-opacity="1" vector-effect="none"/><path id="path8307" d="m3.1718872 290.91049a.26460982.26460982 0 0 0 -.261719.26953v1.84179a.26464845.26464845 0 1 0 .5292968 0v-1.84179a.26460982.26460982 0 0 0 -.2675778-.26953z" font-variant-ligatures="normal" font-variant-position="normal" font-variant-caps="normal" font-variant-numeric="normal" font-variant-alternates="normal" font-feature-settings="normal" text-indent="0" text-align="start" text-decoration-line="none" text-decoration-style="solid" text-decoration-color="#000000" text-transform="none" text-orientation="mixed" white-space="normal" shape-padding="0" isolation="auto" mix-blend-mode="normal" solid-color="#000000" solid-opacity="1" vector-effect="none"/><path id="path8309" d="m2.3515745 291.96127a.26460982.26460982 0 0 0 -.1582031.45312l.7949219.79492a.26460982.26460982 0 0 0 .3730469 0l.7949218-.79492a.26460982.26460982 0 1 0 -.375-.37305l-.6054688.60547-.6074218-.60547a.26460982.26460982 0 0 0 -.2167969-.0801z" font-variant-ligatures="normal" font-variant-position="normal" font-variant-caps="normal" font-variant-numeric="normal" font-variant-alternates="normal" font-feature-settings="normal" text-indent="0" text-align="start" text-decoration-line="none" text-decoration-style="solid" text-decoration-color="#000000" text-transform="none" text-orientation="mixed" white-space="normal" shape-padding="0" isolation="auto" mix-blend-mode="normal" solid-color="#000000" solid-opacity="1" vector-effect="none"/><path id="path8303" d="m3.1718872 294.34994a.26460982.26460982 0 0 0 -.261719.26953v1.85156a.26464845.26464845 0 1 0 .5292968 0v-1.85156a.26460982.26460982 0 0 0 -.2675778-.26953z" font-variant-ligatures="normal" font-variant-position="normal" font-variant-caps="normal" font-variant-numeric="normal" font-variant-alternates="normal" font-feature-settings="normal" text-indent="0" text-align="start" text-decoration-line="none" text-decoration-style="solid" text-decoration-color="#000000" text-transform="none" text-orientation="mixed" white-space="normal" shape-padding="0" isolation="auto" mix-blend-mode="normal" solid-color="#000000" solid-opacity="1" vector-effect="none"/><path id="path8305" d="m3.1718872 294.35384a.26460982.26460982 0 0 0 -.1835939.0781l-.7949219.79297a.26516506.26516506 0 1 0 .375.375l.6074218-.60742.6054688.60742a.26516508.26516508 0 1 0 .375-.375l-.7949218-.79297a.26460982.26460982 0 0 0 -.189453-.0781z" font-variant-ligatures="normal" font-variant-position="normal" font-variant-caps="normal" font-variant-numeric="normal" font-variant-alternates="normal" font-feature-settings="normal" text-indent="0" text-align="start" text-decoration-line="none" text-decoration-style="solid" text-decoration-color="#000000" text-transform="none" text-orientation="mixed" white-space="normal" shape-padding="0" isolation="auto" mix-blend-mode="normal" solid-color="#000000" solid-opacity="1" vector-effect="none"/></g></g></svg>