<svg id="Capa_1" enable-background="new 0 0 128 128" viewBox="0 0 128 128" xmlns="http://www.w3.org/2000/svg"><g><path d="m5.9 90.2 66.6-27.7-33.5-19.8s-3-1.7-7.7-2.3c-17.3.4-31.2 14.5-31.2 31.9 0 6.9 2.2 13.3 5.9 18.5z" fill="#0078d4"/><path d="m123.4 92.8c2.8-4.2 4.5-9.2 4.5-14.6 0-13.8-10.8-25-24.3-25.9 0-.1 0-.2-.1-.3-4.8-.5-9.2 1.4-9.2 1.4l-21.8 9.1z" fill="#1490df"/><path d="m72.5 62.6 21.8-9.1s4.5-1.9 9.2-1.4c-4.2-17.2-19.8-30.1-38.3-30.1-14 0-26.3 7.3-33.4 18.3-.2 0-.3 0-.5 0 4.8.6 7.7 2.3 7.7 2.3z" fill="#0364b8"/><path d="m72.6 62.6-66.6 27.6.1.6c5.8 8.1 15.3 13.4 26 13.4 1 0 2-.1 3-.1h65.9 1.1s.7 0 1.1 0h.1c8.4-.4 15.8-4.8 20.2-11.3z" fill="#28a8ea"/></g></svg>