<svg height="512" viewBox="0 0 58 58" width="512" xmlns="http://www.w3.org/2000/svg"><g id="Page-1" fill="none" fill-rule="evenodd"><g id="015---Passport-Control" fill-rule="nonzero"><path id="Shape" d="m12 55v-53c.0032948-1.10320187.8967981-1.9967052 2-2h26c3.3137085 0 6 2.6862915 6 6v35.42z" fill="#e64c3c"/><rect id="Rectangle-path" fill="#3b97d3" height="26" rx="2" width="9" y="32"/><path id="Shape" d="m56.68 43.57-18.74 11.41c-1.0968305.667384-2.3560847 1.020252-3.64 1.02l-25.3.0000001v-22.0000001h2.8c.0668228-.0016596.1336761.001683.2.01 2.0020766.0415876 3.9348263.7408916 5.5 1.99 1.6191584 1.2920724 3.6284989 1.9971041 5.7 2h5.23c1.8187149.0061815 3.4928538.9923182 4.38 2.58.8396049 1.4277078.6138948 3.2415964-.55 4.42h2.35c.2619491-.0018636.5231264-.028651.78-.08.1659697-.0327045.3296459-.0761288.49-.13l10.12-3.37 8.39-2.8c1.120338-.3678364 2.3505552.0181141 3.06.96v.01c.4649441.6171961.6465512 1.4025179.4997758 2.1611752s-.608183 1.4195768-1.2697758 1.8188248z" fill="#fdd7ad"/><path id="Shape" d="m25.72 43h7.55c-.1123578.7580836-.4666159 1.4595847-1.01 2h-6.54c-1.5797578-.0009418-3.1245213.4652706-4.44 1.34l-.72.49c-.1646841.1130289-.3602737.1724043-.56.17-.3321039-.0015914-.6422908-.1660278-.83-.44-.1488534-.2200282-.2040417-.4902421-.1533875-.7510177.0506543-.2607756.2029878-.4906795.4233875-.6389823l.73-.49c1.6440609-1.0946059 3.5748804-1.6790702 5.55-1.68z" fill="#f9c795"/><path id="Shape" d="m42 17c0-7.17970175-5.8202983-13-13-13s-13 5.82029825-13 13c0 7.1797017 5.8202983 13 13 13 7.1739959-.0137565 12.9862435-5.8260041 13-13zm-23.949 1h4.971c.0381222 1.3788315.1808657 2.7527795.427 4.11-1.0854428.442029-2.0905871 1.0599815-2.975 1.829-1.3824331-1.6933952-2.2263196-3.76184-2.423-5.939zm2.423-7.939c.8844779.76893 1.8896068 1.3868731 2.975 1.829-.2461343 1.3572205-.3888778 2.7311685-.427 4.11h-4.971c.1966804-2.17716 1.0405669-4.2456048 2.423-5.939zm19.475 5.939h-4.971c-.0381222-1.3788315-.1808657-2.7527795-.427-4.11 1.0854428-.442029 2.0905871-1.0599815 2.975-1.829 1.3824331 1.6933952 2.2263196 3.76184 2.423 5.939zm-7.323 5.449c-2.3812708-.5905087-4.8707292-.5905087-7.252 0-.1964344-1.1402368-.3143782-2.2926113-.353-3.449h7.958c-.0387221 1.1563819-.1566652 2.3087495-.353 3.449zm-7.605-5.449c.0387193-1.1557193.1566628-2.307422.353-3.447 1.1852974.2996237 2.4034222.4497897 3.626.447 1.2229149.0029151 2.441386-.1472522 3.627-.447.1954917 1.139671.3130975 2.2913385.352 3.447zm9.064-6.073c-.3142223-1.14387624-.7750434-2.24231769-1.371-3.268 1.2475612.44828892 2.4038164 1.11839524 3.413 1.978-.6163788.52421061-1.3038669.95851995-2.042 1.29zm-1.9.671c-2.0910643.5289814-4.2809357.5289814-6.372 0 .787-2.823 2.029-4.598 3.187-4.598s2.4 1.776 3.186 4.6zm-8.271-.671c-.7384083-.33096734-1.4259661-.76532068-2.042-1.29 1.0091836-.85960476 2.1654388-1.52971108 3.413-1.978-.5956096 1.02573292-1.0560937 2.12417236-1.37 3.268zm0 14.146c.3142223 1.1438762.7750434 2.2423177 1.371 3.268-1.2475612-.4482889-2.4038164-1.1183952-3.413-1.978.6166865-.5242904 1.3045161-.9586027 2.043-1.29zm1.9-.671c2.0910643-.5289814 4.2809357-.5289814 6.372 0-.786 2.823-2.028 4.598-3.186 4.598s-2.4-1.776-3.186-4.6zm8.271.671c.7384083.3309673 1.4259661.7653207 2.042 1.29-1.0091836.8596048-2.1654388 1.5297111-3.413 1.978.5959566-1.0256823 1.0567777-2.1241238 1.371-3.268zm.466-1.963c.2461343-1.3572205.3888778-2.7311685.427-4.11h4.971c-.1966804 2.17716-1.0405669 4.2456048-2.423 5.939-.8844779-.76893-1.8896068-1.3868731-2.975-1.829z" fill="#f5efca"/><path id="Shape" d="m36 34h-14c-.5522847 0-1-.4477153-1-1s.4477153-1 1-1h14c.5522847 0 1 .4477153 1 1s-.4477153 1-1 1z" fill="#f0c419"/></g></g></svg>