<svg id="Capa_1" enable-background="new 0 0 512 512" height="512" viewBox="0 0 512 512" width="512" xmlns="http://www.w3.org/2000/svg"><g><path d="m512 208v96h-37.17c-5.74 26.28-16.08 50.85-30.16 72.79l26.29 26.29-67.88 67.88-26.29-26.29c-21.94 14.08-46.51 24.42-72.79 30.16v37.17h-96v-37.17c-26.28-5.74-50.85-16.08-72.79-30.16l-26.29 26.29-67.88-67.88 26.29-26.29c-14.08-21.94-24.42-46.51-30.16-72.79h-37.17v-96h37.17c5.74-26.28 16.08-50.85 30.16-72.79l-26.29-26.29 67.88-67.88 26.29 26.29c21.94-14.08 46.51-24.42 72.79-30.16v-37.17h96v37.17c26.28 5.74 50.85 16.08 72.79 30.16l26.29-26.29 67.88 67.88-26.29 26.29c14.08 21.94 24.42 46.51 30.16 72.79z" fill="#4e5f7f"/><path d="m512 208v96h-37.17c-5.74 26.28-16.08 50.85-30.16 72.79l26.29 26.29-67.88 67.88-26.29-26.29c-21.94 14.08-46.51 24.42-72.79 30.16v37.17h-48v-512h48v37.17c26.28 5.74 50.85 16.08 72.79 30.16l26.29-26.29 67.88 67.88-26.29 26.29c14.08 21.94 24.42 46.51 30.16 72.79z" fill="#3e4665"/><path d="m406.63 256c0 83.19-67.44 150.63-150.63 150.63s-150.62-67.44-150.62-150.63 67.43-150.62 150.62-150.62 150.63 67.43 150.63 150.62z" fill="#ecf2ff"/><path d="m406.63 256c0 83.19-67.44 150.63-150.63 150.63v-301.25c83.19 0 150.63 67.43 150.63 150.62z" fill="#dae6fe"/><path d="m256 90.38c-91.33 0-165.62 74.29-165.62 165.62s74.29 165.62 165.62 165.62 165.62-74.29 165.62-165.62-74.29-165.62-165.62-165.62zm0 301.24c-74.78 0-135.62-60.84-135.62-135.62s60.84-135.62 135.62-135.62 135.62 60.84 135.62 135.62-60.84 135.62-135.62 135.62z" fill="#dae6fe"/><path d="m421.62 256c0 91.33-74.29 165.62-165.62 165.62v-30c74.78 0 135.62-60.84 135.62-135.62s-60.84-135.62-135.62-135.62v-30c91.33 0 165.62 74.29 165.62 165.62z" fill="#c0d7fe"/><path d="m291.83 214.73-35.83 76.73-8.64 18.5-27.19-12.69 35.83-76.73 8.64-18.5z" fill="#00ce6d"/><path d="m291.83 214.73-35.83 76.73v-70.92l8.64-18.5z" fill="#009a86"/><path d="m195.859 308.246-51.25-52.246 51.25-52.246 21.416 21.008-30.642 31.238 30.642 31.238z" fill="#00ce6d"/><path d="m316.141 308.246-21.416-21.008 30.642-31.238-30.642-31.238 21.416-21.008 51.25 52.246z" fill="#009a86"/></g></svg>